<?xml version="1.0" encoding="utf-8"?>
<!-- Generator: Adobe Illustrator 16.0.0, SVG Export Plug-In . SVG Version: 6.00 Build 0)  -->
<!DOCTYPE svg PUBLIC "-//W3C//DTD SVG 1.1//EN" "http://www.w3.org/Graphics/SVG/1.1/DTD/svg11.dtd">
<svg version="1.1" id="Layer_1" xmlns="http://www.w3.org/2000/svg" xmlns:xlink="http://www.w3.org/1999/xlink" x="0px" y="0px"
	 width="130px" height="130px" viewBox="0 0 130 130" enable-background="new 0 0 130 130" xml:space="preserve">
<g>
	<g>
		<g>
			<g>
				<g>
					<g>
						<g>
							<path fill="#DCF1F9" d="M105.133,10.223l-12.82-7.345c-0.561-0.409-1.162-0.754-1.801-1.032l-0.189-0.107l-0.008,0.016
								c-3.449-1.402-7.904-0.896-12.764,1.909L38.064,26.459c-10.857,6.269-19.74,21.655-19.74,34.193v45.591
								c0,6.114,2.123,10.45,5.547,12.577l-0.033,0.06l14.248,8.073l8.012-13.95l31.453-18.157
								c10.855-6.269,19.74-21.656,19.74-34.193V23.875L105.133,10.223z"/>
							<path fill="#CCE6F2" d="M105.133,10.223L91.41,7.004c-0.561-0.408-3.363-0.398-4.002-0.678L86.391,5.92L84.559,5.58
								c-3.449-1.402-2.148-4.721-7.008-1.916L38.064,26.459c-10.857,6.269-19.74,21.655-19.74,34.193v45.591
								c0,6.114,2.123,10.45,5.547,12.577l-0.033,0.06l14.248,8.073l8.012-13.95l31.453-18.157
								c10.855-6.269,19.74-21.656,19.74-34.193V23.875L105.133,10.223z"/>
							<path fill="#BFD9E8" d="M19.076,54.084c-0.479,2.232-0.752,4.442-0.752,6.568v45.591c0,6.114,2.123,10.45,5.547,12.577
								l-0.033,0.06l14.248,8.073l8.012-13.95l31.453-18.157c1.844-1.065,3.627-2.41,5.322-3.945L19.076,54.084z"/>
							<g>
								<path fill="#FFFFFF" d="M51.635,34.329c-10.857,6.268-19.742,21.656-19.742,34.193v45.592
									c0,12.537,8.885,17.666,19.742,11.396l39.484-22.795c10.857-6.268,19.742-21.655,19.742-34.193V22.93
									c0-12.537-8.885-17.665-19.742-11.396L51.635,34.329z"/>
								<path opacity="0.1" fill="#5BC0D8" d="M110.861,22.93c0-12.537-8.885-17.665-19.742-11.396L51.635,34.329
									c-10.857,6.268-19.742,21.656-19.742,34.193v45.592c0,12.537,8.885,17.666,19.742,11.396"/>
								<path fill="#FFFFFF" d="M42.865,129h-0.002c-7.158,0-11.783-5.843-11.783-14.886V68.522
									c0-12.828,9.037-28.484,20.146-34.898l39.486-22.795c3.201-1.848,6.289-2.784,9.178-2.784
									c7.158,0,11.785,5.844,11.785,14.886v45.592c0,12.829-9.039,28.484-20.148,34.898l-39.486,22.795
									C48.84,128.063,45.754,129,42.865,129z M99.891,9.672c-2.6,0-5.414,0.863-8.363,2.564L52.041,35.034
									c-10.66,6.155-19.334,21.178-19.334,33.488v45.592c0,8.178,3.891,13.258,10.156,13.258h0.002c2.6,0,5.412-0.863,8.361-2.564
									l39.486-22.797c10.66-6.154,19.334-21.178,19.334-33.488V22.93C110.047,14.752,106.156,9.672,99.891,9.672z"/>
							</g>
						</g>
					</g>
				</g>
			</g>
		</g>
	</g>
	<g>
		<g enable-background="new    ">
			<g>
				<path fill="#32455C" d="M75.829,38.28l-7.972,4.602c-0.138,0.08-0.361,0.339-0.394,0.699
					c-0.453,5.258-2.417,15.158-10.676,23.44l0.023,8.263l5.516-3.186l0.06,20.893c0.021,7.077,4.445,14.555,15.999,7.885
					c0.135-0.079,0.271-0.16,0.411-0.242c4.009-2.398,8.449-6.935,9.427-9.195l-2.643-7.612c-1.014,1.149-2.954,2.771-4.395,3.64
					c-0.079,0.047-0.156,0.094-0.233,0.138c-4.161,2.403-4.987-0.778-5.026-3.413L75.87,64.279l10.942-6.318l-0.027-9.687
					l-10.909,6.3L75.829,38.28"/>
			</g>
		</g>
	</g>
	<path fill="#1B2835" d="M75.87,64.279l10.942-6.318l-0.027-9.687l-10.909,6.3L75.829,38.28l-7.972,4.602
		c-0.138,0.08-0.361,0.339-0.394,0.699c-0.453,5.258-2.417,15.158-10.676,23.44l0.023,8.263l5.516-3.186l0.06,20.893
		c0.01,3.244,0.948,6.568,3.07,8.579l10.468-18.13L75.87,64.279z"/>
</g>
</svg>
