<?xml version="1.0" encoding="utf-8"?>
<!-- Generator: Adobe Illustrator 16.0.0, SVG Export Plug-In . SVG Version: 6.00 Build 0)  -->
<!DOCTYPE svg PUBLIC "-//W3C//DTD SVG 1.1//EN" "http://www.w3.org/Graphics/SVG/1.1/DTD/svg11.dtd">
<svg version="1.1" id="Layer_1" xmlns="http://www.w3.org/2000/svg" xmlns:xlink="http://www.w3.org/1999/xlink" x="0px" y="0px"
	 width="130px" height="130px" viewBox="0 0 130 130" enable-background="new 0 0 130 130" xml:space="preserve">
<g>
	<g>
		<g>
			<g>
				<g>
					<g>
						<g>
							<path fill="#DCF1F9" d="M105.133,10.224l-12.82-7.345c-0.561-0.409-1.162-0.754-1.801-1.032l-0.189-0.107l-0.008,0.016
								c-3.449-1.402-7.904-0.896-12.764,1.909L38.064,26.46c-10.857,6.269-19.74,21.655-19.74,34.193v45.591
								c0,6.114,2.123,10.45,5.547,12.577l-0.033,0.06l14.248,8.073l8.012-13.95l31.453-18.157
								c10.855-6.269,19.74-21.656,19.74-34.193V23.876L105.133,10.224z"/>
							<path fill="#CCE6F2" d="M105.133,10.224L91.41,7.005c-0.561-0.408-3.363-0.398-4.002-0.678l-1.018-0.406L84.559,5.58
								c-3.449-1.402-2.148-4.721-7.008-1.916L38.064,26.46c-10.857,6.269-19.74,21.655-19.74,34.193v45.591
								c0,6.114,2.123,10.45,5.547,12.577l-0.033,0.06l14.248,8.073l8.012-13.95l31.453-18.157
								c10.855-6.269,19.74-21.656,19.74-34.193V23.876L105.133,10.224z"/>
							<path fill="#BFD9E8" d="M19.076,54.085c-0.479,2.232-0.752,4.442-0.752,6.568v45.591c0,6.114,2.123,10.45,5.547,12.577
								l-0.033,0.06l14.248,8.073l8.012-13.95l31.453-18.157c1.844-1.065,3.627-2.41,5.322-3.945L19.076,54.085z"/>
							<g>
								<path fill="#FFFFFF" d="M51.635,34.329c-10.857,6.268-19.742,21.656-19.742,34.193v45.592
									c0,12.537,8.885,17.666,19.742,11.396l39.484-22.795c10.857-6.268,19.742-21.655,19.742-34.193V22.931
									c0-12.537-8.885-17.665-19.742-11.396L51.635,34.329z"/>
								<path opacity="0.1" fill="#5BC0D8" d="M110.861,22.931c0-12.537-8.885-17.665-19.742-11.396L51.635,34.329
									c-10.857,6.268-19.742,21.656-19.742,34.193v45.592c0,12.537,8.885,17.666,19.742,11.396"/>
								<path fill="#FFFFFF" d="M42.865,129h-0.002c-7.158,0-11.783-5.843-11.783-14.886V68.522
									c0-12.828,9.037-28.484,20.146-34.898l39.486-22.795c3.201-1.848,6.289-2.784,9.178-2.784
									c7.158,0,11.785,5.844,11.785,14.886v45.592c0,12.829-9.039,28.484-20.148,34.898l-39.486,22.795
									C48.84,128.063,45.754,129,42.865,129z M99.891,9.673c-2.6,0-5.414,0.863-8.363,2.564L52.041,35.034
									c-10.66,6.155-19.334,21.178-19.334,33.488v45.592c0,8.178,3.891,13.258,10.156,13.258h0.002c2.6,0,5.412-0.863,8.361-2.564
									l39.486-22.797c10.66-6.154,19.334-21.178,19.334-33.488V22.931C110.047,14.753,106.156,9.673,99.891,9.673z"/>
							</g>
						</g>
					</g>
				</g>
			</g>
		</g>
	</g>
	<g>
		<g enable-background="new    ">
			<g>
				<path fill="#2F3638" d="M72.295,39.084c-14.812,8.553-26.778,29.333-26.731,46.414c0.039,13.666,7.757,20.825,18.426,18.764
					c0.166-0.062,0.319-0.133,0.46-0.215c0.995-0.576,1.369-1.611,1.368-2.326c-0.003-0.738-0.029-2.674-0.052-5.248
					c-1.005,0.834-1.902,1.461-2.704,1.922c-5.151,2.975-6.344-0.846-6.344-0.846c-1.232-2.873-2.992-2.805-2.992-2.805
					c-2.336-0.496-0.034-1.865,0.17-1.982c0.01-0.006,0.014-0.008,0.014-0.008c2.685-1.333,4.111,0.82,4.111,0.82
					c1.347,1.864,3.148,1.562,4.744,0.642c1.262-0.728,2.395-1.843,3.068-2.581c0.237-2.144,0.927-3.903,1.692-5.119
					c-5.959,2.66-12.227,3.621-12.26-8.232c-0.009-3.382,1.031-6.751,2.736-9.897c-0.273-0.632-1.202-3.236,0.241-8.341
					c0,0,0.195-0.184,0.599-0.418c0.972-0.562,3.161-1.408,6.786-0.668c2.134-1.917,4.425-3.588,6.709-4.916
					c2.279-1.307,4.572-2.283,6.716-2.836c3.61-4.916,5.792-6.593,6.761-7.153c0.405-0.231,0.599-0.273,0.599-0.273
					c1.474,3.421,0.563,7.088,0.287,8.038c1.725,1.166,2.774,3.328,2.783,6.71c0.034,11.881-6.233,18.12-12.204,22.33
					c0.968,0.397,1.834,1.79,1.841,4.675c0.012,4.143-0.017,7.493-0.014,8.516c0.002,0.717,0.371,1.328,1.367,0.752
					c0.148-0.086,0.311-0.195,0.485-0.336c10.629-10.244,18.274-26.264,18.235-39.93C99.145,37.453,87.1,30.539,72.295,39.084"/>
			</g>
		</g>
	</g>
	<g>
		<path d="M97.794,45.563c-3.58-10.248-13.652-13.317-25.499-6.479c-14.812,8.553-26.778,29.333-26.731,46.414
			c0.039,13.625,7.713,20.777,18.332,18.777l1.916-3.318c-0.01-0.977-0.029-2.549-0.046-4.484c-1.005,0.834-1.902,1.461-2.704,1.922
			c-5.151,2.975-6.344-0.846-6.344-0.846c-1.232-2.873-2.992-2.805-2.992-2.805c-2.336-0.496-0.034-1.865,0.17-1.982
			c0.01-0.006,0.014-0.008,0.014-0.008c2.685-1.333,4.111,0.82,4.111,0.82c1.347,1.864,3.148,1.562,4.744,0.642
			c1.262-0.728,2.395-1.843,3.068-2.581c0.237-2.144,0.927-3.903,1.692-5.119c-5.959,2.66-12.227,3.621-12.26-8.232
			c-0.009-3.382,1.031-6.751,2.736-9.897c-0.273-0.632-1.202-3.236,0.241-8.341c0,0,0.195-0.184,0.599-0.418
			c0.972-0.562,3.161-1.408,6.786-0.668c2.134-1.917,4.425-3.588,6.709-4.916c2.279-1.307,4.572-2.283,6.716-2.836
			c3.61-4.916,5.792-6.593,6.761-7.153c0.405-0.231,0.599-0.273,0.599-0.273c1.474,3.421,0.563,7.088,0.287,8.038
			c1.725,1.166,2.774,3.328,2.783,6.71c0.002,0.519-0.024,1.013-0.046,1.511L97.794,45.563z"/>
		<path d="M77.278,80.858c0.035,0.015,0.069,0.04,0.104,0.058l0.132-0.229C77.436,80.743,77.357,80.803,77.278,80.858z"/>
	</g>
</g>
</svg>
