<?xml version="1.0" encoding="utf-8"?>
<!-- Generator: Adobe Illustrator 16.0.0, SVG Export Plug-In . SVG Version: 6.00 Build 0)  -->
<!DOCTYPE svg PUBLIC "-//W3C//DTD SVG 1.1//EN" "http://www.w3.org/Graphics/SVG/1.1/DTD/svg11.dtd">
<svg version="1.1" id="Layer_1" xmlns="http://www.w3.org/2000/svg" xmlns:xlink="http://www.w3.org/1999/xlink" x="0px" y="0px"
	 width="24px" height="24px" viewBox="0 0 24 24" enable-background="new 0 0 24 24" xml:space="preserve">
<g>
	<path d="M15.1,8.9H9.4l0.3,1.8h5.1c0,0,0,0,0,0c0,0,0,0,0,0c0,0,0,0,0.1,0c0,0,0.1,0,0.1,0c0,0,0.1,0,0.1,0c0,0,0,0,0.1,0.1
		c0,0,0,0,0,0.1c0,0,0,0.1,0,0.1c0,0,0,0.1,0,0.1c0,0,0,0,0,0.1c0,0,0,0,0,0s0,0,0,0l-0.3,2.4c0,0.1-0.1,0.3-0.2,0.4l-2.4,1.4
		c-0.1,0-0.2,0.1-0.2,0.1s-0.2,0-0.2-0.1l-2.4-1.4c-0.1-0.1-0.2-0.2-0.2-0.4L9,13c0-0.3,0.1-0.5,0.4-0.5c0.3,0,0.5,0.1,0.5,0.4
		l0.1,0.5l2,1.1l2-1.1l0.2-1.7H9.3l0,0l0,0c-0.1,0-0.1,0-0.2,0c0,0,0,0-0.1,0c0,0-0.1,0-0.1-0.1c0,0,0,0,0-0.1c0,0,0-0.1-0.1-0.1
		c0,0,0-0.1,0-0.1c0,0,0,0,0-0.1L8.4,8.5c0-0.1,0-0.3,0.1-0.4C8.6,8,8.7,7.9,8.9,7.9h6.3c0.3,0,0.5,0.2,0.5,0.5
		C15.6,8.7,15.4,8.9,15.1,8.9z"/>
	<path d="M19.7,0.5H4.3c-2.1,0-3.8,1.7-3.8,3.8v15.4c0,2.1,1.7,3.8,3.8,3.8h15.4c2.1,0,3.8-1.7,3.8-3.8V4.3
		C23.5,2.2,21.8,0.5,19.7,0.5z M18.3,7.3l-1.1,7.8c-0.1,0.5-0.4,0.9-0.8,1.2l-3.6,2.1c-0.2,0.1-0.5,0.2-0.8,0.2
		c-0.3,0-0.6-0.1-0.8-0.2l-3.6-2.1c-0.4-0.2-0.7-0.7-0.8-1.2L5.7,7.3C5.6,6.8,5.8,6.3,6.1,6c0.3-0.3,0.7-0.5,1.2-0.5h9.4
		c0.5,0,0.9,0.2,1.2,0.5C18.2,6.3,18.3,6.8,18.3,7.3z"/>
</g>
</svg>
